<svg width="128" height="128" viewBox="0 0 128 128" fill="none" xmlns="http://www.w3.org/2000/svg" role="img" aria-labelledby="title desc">
  <title id="title">Korvi</title>
  <desc id="desc">Marca de Korvi para movilidad inteligente.</desc>
  <rect width="128" height="128" rx="28" fill="#F8FAFC"/>
  <path d="M64 16C89 16 109 36 109 61C109 90 83 108 64 116C45 108 19 90 19 61C19 36 39 16 64 16Z" fill="#0B1F3A"/>
  <path d="M42 83C51 72 57 62 60 51C63 40 62 31 58 24" stroke="#00C2A8" stroke-width="8" stroke-linecap="round"/>
  <path d="M85 83C76 70 72 59 74 49C76 39 82 31 91 24" stroke="#00C2A8" stroke-width="8" stroke-linecap="round"/>
  <path d="M64 28V100" stroke="#FF6B35" stroke-width="4" stroke-linecap="round" stroke-dasharray="8 10"/>
  <circle cx="64" cy="54" r="18" fill="#F7FAFC"/>
  <circle cx="64" cy="54" r="8" fill="#00C2A8"/>
  <path d="M49 85L60 96L82 72" stroke="#FF6B35" stroke-width="7" stroke-linecap="round" stroke-linejoin="round"/>
</svg>
