<svg width="420" height="128" viewBox="0 0 420 128" fill="none" xmlns="http://www.w3.org/2000/svg" role="img" aria-labelledby="title desc">
  <title id="title">Korvi</title>
  <desc id="desc">Logo horizontal de Korvi, Smart Mobility Platform.</desc>
  <rect width="128" height="128" rx="28" fill="#F8FAFC"/>
  <path d="M64 16C89 16 109 36 109 61C109 90 83 108 64 116C45 108 19 90 19 61C19 36 39 16 64 16Z" fill="#0B1F3A"/>
  <path d="M42 83C51 72 57 62 60 51C63 40 62 31 58 24" stroke="#00C2A8" stroke-width="8" stroke-linecap="round"/>
  <path d="M85 83C76 70 72 59 74 49C76 39 82 31 91 24" stroke="#00C2A8" stroke-width="8" stroke-linecap="round"/>
  <path d="M64 28V100" stroke="#FF6B35" stroke-width="4" stroke-linecap="round" stroke-dasharray="8 10"/>
  <circle cx="64" cy="54" r="18" fill="#F7FAFC"/>
  <circle cx="64" cy="54" r="8" fill="#00C2A8"/>
  <path d="M49 85L60 96L82 72" stroke="#FF6B35" stroke-width="7" stroke-linecap="round" stroke-linejoin="round"/>
  <text x="154" y="58" fill="#0B1F3A" font-family="Inter, Arial, sans-serif" font-size="38" font-weight="850" letter-spacing="0">Korvi</text>
  <text x="156" y="88" fill="#00C2A8" font-family="Inter, Arial, sans-serif" font-size="16" font-weight="750" letter-spacing="1.3">SMART MOBILITY PLATFORM</text>
  <path d="M156 101H306" stroke="#FF6B35" stroke-width="4" stroke-linecap="round"/>
  <path d="M318 101H360" stroke="#00C2A8" stroke-width="4" stroke-linecap="round"/>
</svg>
